<?xml version="1.0" encoding="utf-8"?>
<!-- Generator: Adobe Illustrator 25.0.0, SVG Export Plug-In . SVG Version: 6.00 Build 0)  -->
<svg version="1.1" xmlns="http://www.w3.org/2000/svg" xmlns:xlink="http://www.w3.org/1999/xlink" x="0px" y="0px"
	 viewBox="0 0 4000 4000" style="enable-background:new 0 0 4000 4000;" xml:space="preserve">
<style type="text/css">
	.st0{fill:#FFFFFF;}
</style>
<g id="Layer_1">
	<g>
		<circle class="st0" cx="1999.75" cy="1999.8" r="1817.48"/>
		<g>
			<path d="M3763,1999.8c-0.07,48.41-1.89,96.79-5.7,145.05c-1.85,23.42-4.15,46.8-6.9,70.13c-0.68,5.81-1.43,11.61-2.14,17.41
				c-0.08,0.65-1.15,8.88-0.34,2.75c0.88-6.69-0.51,3.7-0.72,5.21c-1.62,11.53-3.34,23.04-5.18,34.53
				c-14.78,92.39-36.73,183.61-65.62,272.6c-14,43.11-29.63,85.7-46.83,127.64c-1.13,2.76-6.79,16.27-2.94,7.19
				c-2.2,5.19-4.43,10.37-6.68,15.54c-4.82,11.06-9.75,22.08-14.79,33.04c-9.39,20.42-19.15,40.67-29.29,60.73
				c-40.71,80.53-87.44,157.99-139.64,231.59c-13.35,18.82-27.06,37.37-41.1,55.67c5.49-7.16-1.3,1.65-3.26,4.14
				c-3.43,4.38-6.89,8.74-10.36,13.08c-7.44,9.31-14.98,18.54-22.6,27.7c-28.44,34.18-58.13,67.32-88.99,99.33
				c-31.4,32.58-64.01,63.98-97.74,94.14c-16.58,14.82-33.42,29.34-50.53,43.54c-8.56,7.11-17.18,14.13-25.86,21.08
				c-4.34,3.48-8.7,6.93-13.08,10.37c-1.88,1.47-3.76,2.94-5.64,4.41c-6.96,5.43,9.89-7.46-2.29,1.75
				c-71.86,54.42-147.11,104.03-226.07,147.58c-40.02,22.07-80.87,42.63-122.44,61.61c-9.51,4.34-19.06,8.6-28.65,12.78
				c-5.17,2.25-10.34,4.48-15.53,6.68c9.19-3.9-6.17,2.53-9.42,3.86c-20.94,8.56-42.04,16.73-63.28,24.5
				c-86.65,31.7-175.75,56.7-266.22,74.77c-23.53,4.7-47.15,8.93-70.85,12.69c-10.67,1.69-21.36,3.29-32.06,4.79
				c-1.51,0.21-11.89,1.61-5.2,0.72c6.14-0.81-2.09,0.26-2.74,0.34c-6.63,0.81-13.26,1.66-19.9,2.43
				c-47.69,5.56-95.61,9.23-143.59,11.02c-95.66,3.57-191.62-0.25-286.68-11.61c-5.8-0.69-11.6-1.43-17.4-2.16
				c-6.4-0.81,1.05,0.16,1.96,0.29c-3.3-0.45-6.6-0.91-9.9-1.38c-11.52-1.63-23.02-3.38-34.51-5.23
				c-22.86-3.69-45.66-7.82-68.36-12.39c-45.83-9.22-91.31-20.22-136.28-32.97c-44.55-12.63-88.62-26.97-132.07-42.99
				c-21.22-7.83-42.29-16.05-63.2-24.66c-2.98-1.23-5.96-2.47-8.93-3.71c0.82,0.34,7.5,3.19,1.77,0.74
				c-5.18-2.21-10.36-4.44-15.52-6.7c-10.32-4.51-20.59-9.12-30.82-13.82c-82.85-38.09-162.81-82.47-239-132.58
				c-37.24-24.49-73.56-50.36-108.91-77.5c8.24,6.33-3.99-3.15-6.01-4.73c-4.37-3.44-8.73-6.9-13.07-10.38
				c-9.3-7.46-18.52-15.01-27.67-22.64c-17.07-14.25-33.88-28.81-50.42-43.67c-66.72-59.97-129.03-124.85-186.23-193.96
				c-7.09-8.57-14.11-17.2-21.04-25.9c-3.47-4.35-6.91-8.72-10.35-13.1c-1.47-1.88-2.94-3.76-4.4-5.64c3.26,4.2,2.47,3.24-0.29-0.41
				c-13.92-18.4-27.66-36.93-40.96-55.78c-26.19-37.13-50.99-75.23-74.33-114.22c-23.01-38.44-44.61-77.73-64.71-117.77
				c-10.09-20.09-19.8-40.37-29.14-60.82c-4.68-10.25-9.26-20.54-13.74-30.87c-1.05-2.42-6.72-15.72-4.87-11.33
				c2.32,5.52-0.78-1.89-1.02-2.47c-1.53-3.73-3.08-7.46-4.6-11.19c-34.65-85.1-62.8-172.86-84.09-262.24
				c-10.9-45.77-20.01-91.96-27.32-138.43c-1.68-10.68-3.24-21.38-4.75-32.08c-0.28-1.95-1.37-10.63-0.07-0.51
				c-0.32-2.48-0.64-4.97-0.95-7.45c-0.84-6.63-1.64-13.27-2.4-19.91c-2.69-23.35-4.92-46.75-6.71-70.19
				c-7.29-95.68-7.09-191.94,0.59-287.58c1.95-24.24,4.38-48.45,7.29-72.6c0.7-5.8,1.44-11.6,2.18-17.4
				c-1.2,9.39,0.3-2.17,0.77-5.46c1.75-12.34,3.63-24.67,5.63-36.97c7.55-46.4,16.9-92.5,28.05-138.17
				c21.8-89.31,50.71-176.54,85.45-261.63c0.91-2.24,1.85-4.47,2.78-6.7c-3.79,9.1-0.55,1.29,0.21-0.46
				c1.92-4.44,3.82-8.88,5.75-13.31c4.83-11.06,9.78-22.06,14.83-33.02c9.75-21.14,19.9-42.09,30.46-62.83
				c20.31-39.92,42.11-79.08,65.31-117.39c23.54-38.85,48.53-76.82,74.92-113.8c6.01-8.42,12.08-16.79,18.23-25.11
				c3.31-4.48,6.64-8.94,9.99-13.38c1.91-2.54,3.84-5.07,5.76-7.61c0.6-0.79,6.59-8.6,3.04-4c-3.6,4.67,1.24-1.58,1.62-2.07
				c1.97-2.5,3.92-5.01,5.89-7.5c3.45-4.37,6.91-8.72,10.4-13.05c7.47-9.29,15.02-18.5,22.67-27.64
				c57.57-68.81,120.2-133.36,187.24-192.98c16.62-14.78,33.5-29.25,50.65-43.41c8.58-7.08,17.22-14.09,25.92-21.02
				c3.73-2.97,7.48-5.92,11.23-8.86c1.14-0.9,9.04-7.03,3.95-3.09c-4.6,3.56,3.21-2.44,3.99-3.04
				c36.14-27.44,73.18-53.65,111.23-78.39c75.8-49.29,155.28-92.91,237.58-130.35c10.25-4.66,20.55-9.23,30.89-13.7
				c2.39-1.03,16.84-7.13,7.11-3.07c5.95-2.48,11.92-4.95,17.89-7.37c20.97-8.51,42.09-16.62,63.37-24.34
				c42.8-15.51,86.17-29.41,130.02-41.65c45.06-12.57,90.6-23.39,136.5-32.42c22.74-4.48,45.56-8.51,68.45-12.11
				c11.5-1.81,23.02-3.5,34.55-5.09c6.39-0.88-1.06,0.15-1.97,0.27c3.31-0.42,6.62-0.86,9.93-1.27c6.63-0.83,13.27-1.62,19.91-2.38
				c95.17-10.82,191.19-14.15,286.89-10.04c47.92,2.06,95.76,5.99,143.37,11.8c4.97,0.61,9.94,1.25,14.9,1.88
				c-10.81-1.39,5.26,0.74,7.93,1.12c12.33,1.77,24.65,3.66,36.95,5.68c22.84,3.76,45.61,7.95,68.3,12.57
				c91.15,18.58,180.86,44.24,268.06,76.66c21.2,7.88,42.19,16.26,63.12,24.83c0.59,0.24,7.98,3.34,2.47,1.02
				c-6.01-2.53,3.32,1.42,4.67,2c4.44,1.91,8.87,3.83,13.29,5.77c11.05,4.85,22.04,9.81,32.99,14.87
				c41.46,19.2,82.18,39.96,122.07,62.24c39.02,21.79,77.24,45.03,114.55,69.64c19.28,12.71,38.31,25.79,57.09,39.23
				c8.41,6.02,16.77,12.11,25.07,18.27c4.47,3.32,8.93,6.65,13.37,10.01c2.77,2.09,15.78,12.1,8,6.06
				c70.86,55.06,137.66,115.31,199.68,180.16c31.28,32.71,61.35,66.58,90.12,101.52c7.07,8.59,14.06,17.24,20.98,25.96
				c2.96,3.74,5.9,7.5,8.85,11.24c1.16,1.47,6.24,8.1,0.32,0.39c1.94,2.52,3.87,5.05,5.79,7.58c13.48,17.74,26.63,35.72,39.44,53.94
				c52.39,74.47,99.18,152.87,139.82,234.34c10.04,20.12,19.7,40.43,28.98,60.91c4.65,10.26,9.2,20.57,13.66,30.92
				c1.27,2.95,5.63,13.35,2.11,4.9c2.48,5.96,4.95,11.92,7.37,17.9c17.35,42.78,33.06,86.22,47.08,130.2
				c28.18,88.42,49.51,179,63.8,270.7c1.79,11.51,3.49,23.03,5.04,34.58c-1.36-10.12,0.59,4.92,0.97,7.98
				c0.72,5.81,1.41,11.62,2.07,17.43c2.56,22.52,4.7,45.09,6.42,67.7C3761.24,1906.37,3762.94,1953.07,3763,1999.8
				c0.04,29.18,24.79,54,54,54c29.25,0,54.04-24.71,54-54c-0.27-195.06-30.2-390.79-90.47-576.39
				c-58.18-179.16-143.24-349.96-252.44-503.48c-110.74-155.69-243.49-292.88-395.03-409.12c-149.4-114.6-316-205.08-492.7-269.97
				c-182.1-66.87-375.23-103.84-569.01-111.37c-195.83-7.61-393.85,15.76-582.42,69.21c-181.52,51.45-355.95,130.93-513.59,234.62
				C818.87,536.22,677.23,662.15,558.15,806.76c-121.73,147.83-219.68,311.88-292.35,489.01
				c-73.36,178.81-116.84,368.9-131.79,561.49c-15.24,196.31,1.19,395.67,47.6,587.01c44.61,183.91,118.21,361.68,216.27,523.53
				c97,160.1,218.37,306.36,358.43,430.59c140.1,124.28,298.29,228.33,469.02,305.47c178.63,80.71,367.12,132.61,561.79,155.32
				c196.25,22.9,396.01,13.4,589.6-25.81c186.2-37.71,366.83-105.21,532.8-197.6c163.62-91.09,314.1-207.65,443.36-343.15
				c128.96-135.19,238.43-289.94,321.63-457.26c85.14-171.21,144.66-355.01,173.58-544.09c14.76-96.53,22.78-193.82,22.91-291.48
				c0.04-29.18-24.85-54-54-54C3787.68,1945.8,3763.04,1970.51,3763,1999.8z"/>
		</g>
	</g>
</g>
<g id="Layer_2">
	<g>
		<g>
			<path d="M3397,1988.5c-232.33-0.03-464.65-3.62-696.93-7.74c-29.82-0.53-59.65-1.09-89.47-1.59
				c-23.01-0.38-44.06-0.28-62.23,16.83c-8.52,8.03-14.06,19.39-18.79,29.92c-7.57,16.86-14.44,34.05-21.01,51.32
				c-39.2,103.01-72.48,208.41-106.49,313.21c-47.53,146.46-93.96,293.28-140.45,440.08c-42.62,134.58-85.02,269.25-128.73,403.48
				c-14.7,45.14-29.47,90.28-45.1,135.11c-4.94,14.16-9.94,28.32-15.35,42.31c-0.97,2.51-1.98,5.01-2.97,7.52
				c-4.39,11.18,6.7-14.52,2.51-5.91c-1.21,2.48-3.23,5.46-4,8.09c-1.56,5.35,9.44-11.41,7.05-9.09
				c24.78-24.11,66.18-18.14,83.52,10.8c-3.32-5.53,5.72,18.46,4.03,9.25c-1.02-5.58-2.32-11.08-3.19-16.7
				c-0.3-1.93-0.56-3.86-0.85-5.79c-1.75-11.83,2.16,16.77,0.87,6.51c-0.67-5.34-1.35-10.68-1.97-16.02
				c-1.58-13.47-3-26.95-4.36-40.44c-8.79-87.05-15.6-174.31-22.39-261.53c-9.91-127.25-19.12-254.56-28.14-381.87
				c-10.63-150.06-20.95-300.14-31.14-450.23c-10.63-156.47-21.11-312.95-31.58-469.42c-9.8-146.56-19.58-293.12-29.46-439.68
				c-8.03-119.03-16.1-238.06-24.52-357.07c-5.33-75.25-10.52-150.53-17.04-225.69c-1.74-20.06-1.88-42.63-6.81-62.19
				c-6.32-25.1-25.53-44.8-53.34-44.8c-32.81,0-46.65,23.36-56.38,49.32c-29.78,79.45-53.06,161.76-78.68,242.6
				c-44.72,141.1-89.28,282.25-134.56,423.17c-44.83,139.51-89.97,278.96-138.12,417.37c-16.97,48.79-34.19,97.54-53.2,145.58
				c-1.77,4.48-3.56,8.95-5.38,13.4c-2.66,6.54-8.72,20.21-0.08,0.41c-3.04,6.97-6.01,13.97-9.26,20.85
				c-2.39,5.05-4.84,10.1-7.6,14.96c-0.99,1.74-2.1,3.4-3.09,5.14c-5.12,8.99,7.9-9.46,5.21-6.53c-5.89,6.41,11.33-7.68,8.44-6.16
				c-4.14,2.18,15.93-6.25,11.73-4.92c16.16-5.1,18.12-1.56,11.17-1.86c-8.21-0.36-16.51,0-24.73,0
				c-32.57-0.01-65.14-0.04-97.71-0.07c-112.56-0.13-225.13-0.39-337.69-0.81c-136.07-0.5-272.15-1.22-408.22-2.33
				c-28.25-0.23-55.3,25-54,54c1.32,29.45,23.72,53.75,54,54c268.92,2.19,537.86,3.02,806.79,3.19c14.77,0.01,29.54,0.02,44.3,0.02
				c11.36,0,23.75,1.01,34.79-1.99c20.62-5.61,34.24-22.21,43.93-40.22c20.81-38.71,35.45-81.41,50.66-122.54
				c52.45-141.88,98.87-286.05,145.47-429.93c52.18-161.11,103.18-322.59,154.32-484.02c28.45-89.81,55.29-180.45,87.36-269.06
				c2.68-7.42-8.11,16.32-3.92,9.32c0.2-0.33,0.33-0.71,0.54-1.04c-6.5,10.33-18.18,21.84-31.74,24.23c-9.57,0-19.14,0-28.71,0
				c-14.64-2.09-36.63-23.46-37.14-36.34c0.04,0.94,0.32,2.22,0.58,3.12c2.8,9.66-2.13-17.43-1.22-9.3
				c0.25,2.21,0.53,4.42,0.78,6.64c1.54,13.84,2.73,27.71,3.91,41.58c4.31,50.36,7.98,100.79,11.64,151.2
				c5.49,75.65,10.74,151.32,15.94,226.99c6.45,94.01,12.8,188.04,19.12,282.06c7.15,106.37,14.25,212.74,21.36,319.11
				c7.52,112.46,15.04,224.92,22.62,337.37c7.56,112.28,15.17,224.56,22.89,336.83c7.27,105.84,14.63,211.67,22.17,317.49
				c6.63,93.13,13.39,186.25,20.46,279.35c5.63,74.16,11.41,148.31,17.76,222.41c4.19,48.93,8.41,97.89,14.08,146.67
				c4.29,36.97,3.75,91.73,48.79,104.18c43.33,11.98,62.64-22.88,75.57-54.93c7.96-19.72,14.9-39.87,21.83-59.97
				c25.35-73.49,49.04-147.56,72.78-221.58c32.35-100.88,64.29-201.88,96.27-302.88c34.13-107.76,68.25-215.53,102.74-323.17
				c30.16-94.1,60.5-188.15,91.97-281.82c20.15-59.97,40.18-120.16,63.95-178.81c3.89-9.59-6.77,15.56-2.46,5.84
				c0.82-1.85,1.61-3.71,2.44-5.55c1.42-3.15,2.87-6.29,4.47-9.35c1.11-2.12,2.46-4.13,3.55-6.26c3.4-6.64-6.57,8.45-6.78,8.65
				c5.07-4.83-11.48,8.37-9.45,7.06c-4.71,3.04-20.84,8.26-25.53,7.04c1.41,0.37,3.42,0.03,4.87,0.05
				c5.44,0.06,10.88,0.16,16.32,0.25c19.73,0.33,39.46,0.69,59.19,1.05c153.71,2.75,307.42,5.23,461.15,6.78
				c88.69,0.89,177.38,1.49,266.07,1.51c28.25,0,55.31-24.84,54-54C3449.69,2013.24,3427.27,1988.5,3397,1988.5L3397,1988.5z"/>
		</g>
	</g>
	<g>
		<g>
			<path d="M1128.97,1110.79c-10.93,54.06-21.97,108.09-33.02,162.12c-13.57,66.32-27.18,132.62-40.83,198.93
				c-13.38,65-26.78,129.98-40.24,194.96c-10.62,51.3-21.26,102.6-32,153.87c-5.02,23.96-9.97,47.93-15.32,71.82
				c-0.09,0.42-0.18,0.88-0.34,1.28c1.81-4.3,3.63-8.6,5.44-12.9c0,0.01-0.01,0.02-0.01,0.02c2.81-3.64,5.63-7.29,8.44-10.93
				c0,0,0,0-0.01,0.01c7.94-4.63,15.89-9.26,23.83-13.89c0,0,0,0,0,0c17.51,4.63,35.03,9.26,52.54,13.89c0,0,0,0,0,0
				c2.81,3.64,5.63,7.29,8.44,10.93c0,0,0-0.01,0-0.01c1.81,4.3,3.63,8.6,5.44,12.9c-1.89-4.91-2.38-10.83-3.47-15.95
				c-3.03-14.27-6.03-28.55-9.04-42.82c-10.26-48.74-20.54-97.47-30.87-146.19c-13.69-64.51-27.47-128.99-41.43-193.44
				c-14.48-66.9-29.13-133.76-44.16-200.53c-12.59-55.92-25.35-111.81-39.08-167.46c-1.37-5.54-2.75-11.07-4.14-16.61
				c-3.27-12.99-13.35-25.56-24.82-32.27c-11.57-6.77-28.63-9.64-41.61-5.44c-13.07,4.23-25.67,12.33-32.27,24.82
				c-6.88,13.02-9.09,27.12-5.44,41.61c13.51,53.68,25.91,107.63,38.15,161.61c15.09,66.56,29.75,133.22,44.23,199.92
				c14.28,65.74,28.37,131.53,42.36,197.34c10.9,51.28,21.72,102.58,32.53,153.88c4.87,23.14,9.09,46.56,14.74,69.53
				c3.48,14.17,13,25.27,25.01,33.02c29.8,19.21,70.81-0.04,79.47-32.7c0.58-2.2,1.04-4.43,1.53-6.65
				c2.51-11.36,4.9-22.75,7.3-34.14c9.53-45.14,18.91-90.31,28.28-135.49c13.17-63.49,26.29-126.99,39.38-190.5
				c14.04-68.12,28.05-136.26,42.01-204.4c12.1-59.05,24.18-118.1,36.17-177.17c2.32-11.41,4.63-22.83,6.94-34.24
				c2.9-14.33,2.12-28.68-5.44-41.61c-6.55-11.2-19.4-21.88-32.27-24.82c-13.82-3.15-29.34-2.47-41.61,5.44
				C1142.42,1085.84,1131.74,1097.08,1128.97,1110.79L1128.97,1110.79z"/>
		</g>
	</g>
	<g>
		<g>
			<path d="M3213.42,2334.05c1.31-18.33,0.04-36.95-2.3-55.14c-4.24-32.85-10.82-64.19-26.68-93.72
				c-11.96-22.26-30.78-42.91-54.14-53.34c-13.28-5.93-26.67-11.4-40.79-14.95c-18.52-4.65-37.95-7.24-57.02-7.71
				c-37.22-0.92-74,7.05-106.98,24.35c-13.88,7.28-26.58,17.01-38.45,27.16c-8.53,7.29-16.28,15.48-23.26,24.26
				c-15.69,19.75-29.21,40.08-39.33,63.22c-8.22,18.79-15.69,37.73-20.95,57.56c-7.21,27.2-11.94,55.2-16.08,83.01
				c-6.11,41.11-10.63,82.42-12.87,123.93c-3.21,59.34-2.75,119.18,3.2,178.34c2.77,27.58,7.03,54.97,12.21,82.19
				c5.86,30.76,13,61.41,23.58,90.92c6.57,18.33,14.11,36.5,23.13,53.77c8.78,16.81,19.6,31.8,31.3,46.7
				c25.17,32.08,60.11,55.62,98.19,69.57c32.41,11.87,67.51,12.17,101.07,5.9c12.46-2.33,24.91-5.93,36.66-10.67
				c9.83-3.97,19.84-7.92,29.03-13.29c9.04-5.28,17.41-11.93,25.42-18.6c14.15-11.79,25.93-27.2,35.77-42.62
				c10.33-16.18,17.86-34.69,23.29-53.05c8.82-29.79,11.78-61.67,12.37-92.65c0.16-8.43,0.01-16.86,0.26-25.29
				c0.39-13.59-6.3-28.67-15.82-38.18c-9.37-9.37-24.73-16.42-38.18-15.82c-13.97,0.63-28.45,5.21-38.18,15.82
				c-9.86,10.74-15.39,23.42-15.82,38.18c-0.66,22.9-0.27,45.61-3.32,68.4c0.64-4.79,1.29-9.57,1.93-14.36
				c-2.53,18.28-6.76,36.29-13.82,53.38c1.81-4.3,3.63-8.6,5.44-12.9c-5.15,12.15-11.76,23.35-19.82,33.79
				c2.81-3.64,5.63-7.29,8.44-10.93c-6.47,8.24-13.66,15.78-21.91,22.26c3.64-2.81,7.29-5.63,10.93-8.44
				c-7.77,5.94-16.22,10.73-25.2,14.59c4.3-1.81,8.6-3.63,12.9-5.44c-14.65,6.15-30.35,10.61-46.1,12.81
				c4.79-0.64,9.57-1.29,14.36-1.93c-12.17,1.61-24.41,1.66-36.59,0.09c4.79,0.64,9.57,1.29,14.36,1.93
				c-11.88-1.65-23.4-4.82-34.49-9.37c4.3,1.81,8.6,3.63,12.9,5.44c-13.33-5.63-25.65-13.1-37.1-21.93
				c3.64,2.81,7.29,5.63,10.93,8.44c-12.33-9.71-23.26-20.81-32.86-33.22c2.81,3.64,5.63,7.29,8.44,10.93
				c-13.19-17.31-23.55-36.46-32.04-56.47c1.81,4.3,3.63,8.6,5.44,12.9c-11.06-26.41-18.88-54.03-25.11-81.93
				c-5.38-24.08-10.01-48.47-13.32-72.93c0.64,4.78,1.29,9.57,1.93,14.36c-9.55-71.49-9.65-144.75-4.84-216.61
				c1.76-26.31,4.37-52.55,7.86-78.69c-0.64,4.79-1.29,9.57-1.93,14.36c6.36-46.95,13.75-95.22,32.23-139.21
				c-1.81,4.3-3.63,8.6-5.44,12.9c8.06-19.02,18.1-37.19,30.69-53.6c-2.81,3.64-5.63,7.29-8.44,10.93
				c9.07-11.68,19.38-22.3,31.07-31.37c-3.64,2.81-7.29,5.63-10.93,8.44c9.93-7.59,20.69-13.92,32.19-18.83
				c-4.3,1.81-8.6,3.63-12.9,5.44c12.23-5.1,25-8.46,38.13-10.24c-4.79,0.64-9.57,1.29-14.36,1.93c17.27-2.19,34.63-2.21,51.89,0.02
				c-4.79-0.64-9.57-1.29-14.36-1.93c15.96,2.19,31.66,6.18,46.55,12.38c-4.3-1.81-8.6-3.63-12.9-5.44
				c5.86,2.48,11.53,5.16,16.59,9.05c-3.64-2.81-7.29-5.63-10.93-8.44c4.76,3.79,8.93,8.17,12.65,12.98
				c-2.81-3.64-5.63-7.29-8.44-10.93c5.49,7.29,9.82,15.28,13.42,23.65c-1.81-4.3-3.63-8.6-5.44-12.9
				c7.44,17.66,11.64,36.49,14.23,55.43c-0.64-4.79-1.29-9.57-1.93-14.36c2.44,18.36,3.71,37.2,2.38,55.72
				c-0.95,13.21,6.7,29.07,15.82,38.18c9.37,9.37,24.73,16.42,38.18,15.82c13.97-0.63,28.45-5.21,38.18-15.82
				c2.81-3.64,5.63-7.29,8.44-10.93C3210.93,2352.88,3213.39,2343.8,3213.42,2334.05L3213.42,2334.05z"/>
		</g>
	</g>
</g>
</svg>
